<svg width="120" height="120" viewBox="0 0 120 120" fill="none" xmlns="http://www.w3.org/2000/svg">
  <defs>
    <!-- Gradients -->
    <linearGradient id="mainGradient" x1="0%" y1="0%" x2="100%" y2="100%">
      <stop offset="0%" style="stop-color:#3B82F6;stop-opacity:1" />
      <stop offset="50%" style="stop-color:#1E40AF;stop-opacity:1" />
      <stop offset="100%" style="stop-color:#1E3A8A;stop-opacity:1" />
    </linearGradient>
    
    <linearGradient id="cubeGradient" x1="0%" y1="0%" x2="100%" y2="100%">
      <stop offset="0%" style="stop-color:#60A5FA;stop-opacity:1" />
      <stop offset="100%" style="stop-color:#3B82F6;stop-opacity:1" />
    </linearGradient>
    
    <linearGradient id="oceanGradient" x1="0%" y1="0%" x2="0%" y2="100%">
      <stop offset="0%" style="stop-color:#06B6D4;stop-opacity:1" />
      <stop offset="50%" style="stop-color:#0891B2;stop-opacity:1" />
      <stop offset="100%" style="stop-color:#164E63;stop-opacity:1" />
    </linearGradient>
    
    <linearGradient id="plantGradient" x1="0%" y1="0%" x2="0%" y2="100%">
      <stop offset="0%" style="stop-color:#34D399;stop-opacity:1" />
      <stop offset="100%" style="stop-color:#059669;stop-opacity:1" />
    </linearGradient>
    
    <radialGradient id="glowEffect" cx="50%" cy="50%" r="50%">
      <stop offset="0%" style="stop-color:#ffffff;stop-opacity:0.3" />
      <stop offset="100%" style="stop-color:#ffffff;stop-opacity:0" />
    </radialGradient>
    
    <!-- Shadows -->
    <filter id="dropShadow" x="-50%" y="-50%" width="200%" height="200%">
      <feGaussianBlur in="SourceAlpha" stdDeviation="2"/>
      <feOffset dx="2" dy="2" result="offset"/>
      <feComponentTransfer>
        <feFuncA type="linear" slope="0.3"/>
      </feComponentTransfer>
      <feMerge> 
        <feMergeNode/>
        <feMergeNode in="SourceGraphic"/> 
      </feMerge>
    </filter>
    
    <filter id="innerShadow" x="-50%" y="-50%" width="200%" height="200%">
      <feGaussianBlur in="SourceAlpha" stdDeviation="1"/>
      <feOffset dx="1" dy="1"/>
      <feComposite in2="SourceAlpha" operator="arithmetic" k2="-1" k3="1"/>
      <feColorMatrix values="0 0 0 0 0   0 0 0 0 0   0 0 0 0 0  0 0 0 0.2 0"/>
    </filter>
  </defs>
  
  <!-- Outer ring with gradient -->
  <circle cx="60" cy="60" r="58" stroke="url(#mainGradient)" stroke-width="3" fill="white" filter="url(#dropShadow)"/>
  
  <!-- Inner subtle ring -->
  <circle cx="60" cy="60" r="55" stroke="#E5E7EB" stroke-width="1" fill="none" opacity="0.5"/>
  
  <!-- Glow effect -->
  <circle cx="60" cy="60" r="54" fill="url(#glowEffect)"/>
  
  <!-- Blockchain Network (top section) -->
  <g transform="translate(60, 28)" filter="url(#dropShadow)">
    <!-- Central node with enhanced styling -->
    <rect x="-9" y="-9" width="18" height="18" rx="3" fill="url(#cubeGradient)" stroke="#1E40AF" stroke-width="1.5"/>
    <rect x="-7" y="-7" width="14" height="14" rx="2" fill="none" stroke="rgba(255,255,255,0.3)" stroke-width="1"/>
    
    <!-- Connected cubes with 3D effect -->
    <g transform="translate(-28, -8)">
      <rect x="-7" y="-7" width="14" height="14" rx="2" fill="url(#cubeGradient)" stroke="#3B82F6" stroke-width="1"/>
      <rect x="-6" y="-6" width="12" height="12" rx="1" fill="none" stroke="rgba(255,255,255,0.2)" stroke-width="1"/>
    </g>
    
    <g transform="translate(28, -8)">
      <rect x="-7" y="-7" width="14" height="14" rx="2" fill="url(#cubeGradient)" stroke="#3B82F6" stroke-width="1"/>
      <rect x="-6" y="-6" width="12" height="12" rx="1" fill="none" stroke="rgba(255,255,255,0.2)" stroke-width="1"/>
    </g>
    
    <g transform="translate(-22, 18)">
      <rect x="-7" y="-7" width="14" height="14" rx="2" fill="url(#cubeGradient)" stroke="#3B82F6" stroke-width="1"/>
      <rect x="-6" y="-6" width="12" height="12" rx="1" fill="none" stroke="rgba(255,255,255,0.2)" stroke-width="1"/>
    </g>
    
    <g transform="translate(22, 18)">
      <rect x="-7" y="-7" width="14" height="14" rx="2" fill="url(#cubeGradient)" stroke="#3B82F6" stroke-width="1"/>
      <rect x="-6" y="-6" width="12" height="12" rx="1" fill="none" stroke="rgba(255,255,255,0.2)" stroke-width="1"/>
    </g>
    
    <!-- Enhanced connection lines with glow -->
    <line x1="0" y1="0" x2="-28" y2="-8" stroke="#60A5FA" stroke-width="3" opacity="0.3"/>
    <line x1="0" y1="0" x2="-28" y2="-8" stroke="#3B82F6" stroke-width="2"/>
    
    <line x1="0" y1="0" x2="28" y2="-8" stroke="#60A5FA" stroke-width="3" opacity="0.3"/>
    <line x1="0" y1="0" x2="28" y2="-8" stroke="#3B82F6" stroke-width="2"/>
    
    <line x1="0" y1="0" x2="-22" y2="18" stroke="#60A5FA" stroke-width="3" opacity="0.3"/>
    <line x1="0" y1="0" x2="-22" y2="18" stroke="#3B82F6" stroke-width="2"/>
    
    <line x1="0" y1="0" x2="22" y2="18" stroke="#60A5FA" stroke-width="3" opacity="0.3"/>
    <line x1="0" y1="0" x2="22" y2="18" stroke="#3B82F6" stroke-width="2"/>
    
    <!-- Enhanced connection nodes -->
    <circle cx="-28" cy="-8" r="3" fill="url(#cubeGradient)" stroke="#1E40AF" stroke-width="1"/>
    <circle cx="28" cy="-8" r="3" fill="url(#cubeGradient)" stroke="#1E40AF" stroke-width="1"/>
    <circle cx="-22" cy="18" r="3" fill="url(#cubeGradient)" stroke="#1E40AF" stroke-width="1"/>
    <circle cx="22" cy="18" r="3" fill="url(#cubeGradient)" stroke="#1E40AF" stroke-width="1"/>
    
    <!-- Outer network nodes -->
    <circle cx="-35" cy="12" r="2" fill="#93C5FD" stroke="#60A5FA" stroke-width="1"/>
    <circle cx="35" cy="12" r="2" fill="#93C5FD" stroke="#60A5FA" stroke-width="1"/>
    <circle cx="-40" cy="-12" r="2" fill="#93C5FD" stroke="#60A5FA" stroke-width="1"/>
    <circle cx="40" cy="-12" r="2" fill="#93C5FD" stroke="#60A5FA" stroke-width="1"/>
    
    <!-- Enhanced water drop -->
    <path d="M0 38 Q-6 26 0 20 Q6 26 0 38" fill="url(#oceanGradient)" stroke="#0891B2" stroke-width="1"/>
    <ellipse cx="0" cy="30" rx="3" ry="6" fill="rgba(255,255,255,0.3)"/>
  </g>
  
  <!-- Enhanced wave section (bottom) -->
  <g transform="translate(0, 78)" filter="url(#dropShadow)">
    <!-- Ocean waves with gradient -->
    <path d="M8 0 Q28 -12 48 0 Q68 12 88 0 Q108 -12 128 0" 
          stroke="url(#oceanGradient)" stroke-width="4" fill="none" opacity="0.8"/>
    <path d="M8 0 Q28 -12 48 0 Q68 12 88 0 Q108 -12 128 0" 
          stroke="#BFDBFE" stroke-width="2" fill="none"/>
    
    <path d="M8 8 Q28 -4 48 8 Q68 20 88 8 Q108 -4 128 8" 
          stroke="url(#oceanGradient)" stroke-width="3" fill="none" opacity="0.6"/>
    <path d="M8 8 Q28 -4 48 8 Q68 20 88 8 Q108 -4 128 8" 
          stroke="#DBEAFE" stroke-width="1.5" fill="none"/>
    
    <path d="M8 15 Q28 3 48 15 Q68 27 88 15 Q108 3 128 15" 
          stroke="url(#oceanGradient)" stroke-width="2" fill="none" opacity="0.4"/>
    
    <!-- Enhanced seabed/ecosystem -->
    <ellipse cx="60" cy="18" rx="48" ry="16" fill="url(#plantGradient)" opacity="0.7"/>
    <ellipse cx="60" cy="22" rx="38" ry="12" fill="url(#plantGradient)" opacity="0.9"/>
    <ellipse cx="60" cy="25" rx="28" ry="8" fill="#047857" opacity="0.8"/>
    
    <!-- Enhanced marine plants -->
    <g transform="translate(60, 18)">
      <path d="M0 0 Q-4 -8 -1 -15 Q2 -8 0 0" fill="url(#plantGradient)" stroke="#047857" stroke-width="0.5"/>
      <path d="M-3 -5 Q-7 -10 -4 -18" stroke="#059669" stroke-width="1.5" fill="none"/>
      <path d="M3 -5 Q7 -10 4 -18" stroke="#059669" stroke-width="1.5" fill="none"/>
      
      <!-- Additional smaller plants -->
      <path d="M-8 2 Q-10 -3 -8 -8" stroke="#10B981" stroke-width="1" fill="none"/>
      <path d="M8 2 Q10 -3 8 -8" stroke="#10B981" stroke-width="1" fill="none"/>
      <path d="M-15 4 Q-16 0 -15 -5" stroke="#34D399" stroke-width="1" fill="none"/>
      <path d="M15 4 Q16 0 15 -5" stroke="#34D399" stroke-width="1" fill="none"/>
    </g>
  </g>
  
  <!-- Enhanced circuit pattern overlay -->
  <g opacity="0.4" filter="url(#dropShadow)">
    <path d="M18 42 L38 42 L38 62 M82 42 L102 42 L102 62 M38 22 L58 22 M62 98 L82 98" 
          stroke="#60A5FA" stroke-width="1.5" fill="none"/>
    <path d="M18 42 L38 42 L38 62 M82 42 L102 42 L102 62 M38 22 L58 22 M62 98 L82 98" 
          stroke="#BFDBFE" stroke-width="0.5" fill="none"/>
    
    <circle cx="38" cy="42" r="2" fill="url(#cubeGradient)" stroke="#3B82F6" stroke-width="1"/>
    <circle cx="102" cy="42" r="2" fill="url(#cubeGradient)" stroke="#3B82F6" stroke-width="1"/>
    <circle cx="58" cy="22" r="2" fill="url(#cubeGradient)" stroke="#3B82F6" stroke-width="1"/>
    <circle cx="82" cy="98" r="2" fill="url(#cubeGradient)" stroke="#3B82F6" stroke-width="1"/>
    
    <!-- Small connecting dots -->
    <circle cx="28" cy="52" r="1" fill="#93C5FD"/>
    <circle cx="92" cy="52" r="1" fill="#93C5FD"/>
    <circle cx="48" cy="32" r="1" fill="#93C5FD"/>
    <circle cx="72" cy="88" r="1" fill="#93C5FD"/>
  </g>
  
  <!-- Final highlight overlay -->
  <circle cx="60" cy="60" r="56" fill="none" stroke="rgba(255,255,255,0.1)" stroke-width="1"/>
</svg>